<svg id="Component_61_1" data-name="Component 61 – 1" xmlns="http://www.w3.org/2000/svg" width="641.661" height="321.672" viewBox="0 0 641.661 321.672">
  <path id="Union_4" data-name="Union 4" d="M840.146,1316.106a143.266,143.266,0,0,1-43.41-14.784,167.043,167.043,0,0,1-37.444-27.307c-20.625-19.793-47.7-24.046-72.425-11.375a65.84,65.84,0,0,0-7.312,4.367L703.7,1302.46a.466.466,0,0,1,.038.462.461.461,0,0,1-.375.27l-4.248.445a.462.462,0,0,1-.4-.158l-26.535-30.544a54.891,54.891,0,0,0-7.8,9.011q-.427.622-.783,1.064a6,6,0,0,1,2.147,2.349c.65,2.107-.07,2.6-.07,2.6l-7.533,10.383-1.764-1.349-3.122,4.053a.891.891,0,0,1-.361.263.843.843,0,0,1-.709-.081l-4.5-3.212a.815.815,0,0,1-.215-1.092l3.253-4.255-2.064-1.577,7.513-10.045a4.745,4.745,0,0,1,2.579-1c1.22.063.021.015.021.015a40.154,40.154,0,0,1,4.134,2.452q.284-.479.7-1.1a55.932,55.932,0,0,1,7.958-9.189l-48.218-55.505c-.526-.378-8.637-5.817-49.378-14.8-21.5-4.743-34.258.574-45.509,5.264-10.907,4.547-20.329,8.476-34.419,1.205a.564.564,0,0,1-.053-.03c-8.043-5.583-12.7-12.165-13.834-19.567a26.8,26.8,0,0,1,1.988-14.258,29.342,29.342,0,0,1,3.155-5.729c-5.7-33.251-20.821-53.312-44.954-59.632-19.936-5.222-45.914-.308-73.15,13.838a218.825,218.825,0,0,0-66.777,54.374.468.468,0,0,1-.657.073l0,0a.468.468,0,0,1-.07-.659,219.783,219.783,0,0,1,67.076-54.619A147.393,147.393,0,0,1,405,1108.133c13.112-2.66,25.085-2.615,35.586.137a53.492,53.492,0,0,1,28.867,18.847c8.194,10.286,13.849,24.327,16.808,41.735a.469.469,0,0,1-.091.365c-.068.087-6.715,8.829-5.081,19.449,1.1,7.122,5.611,13.486,13.416,18.909,13.688,7.048,22.917,3.2,33.6-1.252,5.467-2.278,11.664-4.861,19.06-6.208a67.509,67.509,0,0,1,27.014.894c42.472,9.366,49.514,14.78,49.792,15.006a.791.791,0,0,1,.06.057l48.232,55.522a65.037,65.037,0,0,1,6-4.82l-28.56-41.933a80.085,80.085,0,0,1-14.33-6.444,38.722,38.722,0,0,1-5.081-3.476,5.422,5.422,0,0,1-1.507-.139,5.1,5.1,0,0,1-3.539-3.439,4.368,4.368,0,0,1,1.135-4.35,5.393,5.393,0,0,1,3.354-1.5.47.47,0,0,1,.242.886,3.722,3.722,0,0,0-1.735,4.738,8.158,8.158,0,0,0,2.374,2.837,4.226,4.226,0,0,0,2.585-1.228,3.969,3.969,0,0,0,.539-4.118c-1.519-4.646-6.832-5.3-14.17-5.716-4.819-.273-8.966-3.622-11.518-6.265,3.392,4.948,10.382,12.127,13.006,14.767q.559.51,1.043,1.041a.47.47,0,0,1-.674.654c-.087-.087-.458-.448-1.028-1.022-2.95-2.678-7.772-5.209-14.069-7.373a95.094,95.094,0,0,0-18.9-4.331c-7.774-.917-11.05-3.464-12.369-5.057l-.27,4.481a.47.47,0,0,1-.9.151c-.015-.034-1.46-3.421-6.127-6.271-4.119-2.514-11.166-1.884-19.845,1.775-2.7,1.139-4.471,1.4-5.749.842-1.4-.612-1.944-2.094-2.571-3.808a21.138,21.138,0,0,0-1.215-2.864c-2.516-4.671-7.848-10.281-13.172-11.958-4.346-1.37-7.822-4.268-11.179-7.069-1.091-.908-2.218-1.849-3.341-2.706-2.358-1.8-4.528-2.514-6.277-2.079a4.859,4.859,0,0,0-3.158,2.968,14.979,14.979,0,0,1-2.871,4,20.147,20.147,0,0,1,5.548-1.4,22.966,22.966,0,0,1,12.1,2.189c7.3,3.39,12.8,9.99,13.082,15.688a15.872,15.872,0,0,1-6.078,13.262c-4.877,3.911-11.7,5.047-18.725,3.117a20.435,20.435,0,0,1-13.37-10.727c-2.465-4.952-2.93-10.979-1.186-15.356a11.86,11.86,0,0,0,.205-8.668,11.328,11.328,0,0,0-1.917-3.416.47.47,0,0,1-.1-.443.475.475,0,0,1,.321-.323c.507-.146,12.488-3.586,17.9-4.154,4.415-.464,10.184,3.571,19.74,10.254,2.558,1.79,5.459,3.818,8.625,5.957,14.231,9.621,38.748,11.168,38.993,11.183a.479.479,0,0,1,.28.112l2.01,1.733c11.51,2.7,26.155-.768,28.65-1.4-.673-9.979-5.572-24.812-6.539-27.66l-1.41.625a.468.468,0,0,1-.378,0,.455.455,0,0,1-.256-.277,122.555,122.555,0,0,0-6.8-15.449c-3.992-7.607-10.448-17.764-18.535-22.948-8.555-5.482-13.813-9.532-17.1-15.217-3.466-6-4.443-13.758-3.164-25.15a86.925,86.925,0,0,1-3.388-15.1,36.774,36.774,0,0,1,.146-11.761c.846-4.032,2.7-6.78,5.523-8.175a3.846,3.846,0,0,1,2.318-.486,23.978,23.978,0,0,1,3.347-3.789,38.093,38.093,0,0,1,11.151-6.93,57.093,57.093,0,0,1,19.227-4.234,43.532,43.532,0,0,1,5.233-10.149,62.349,62.349,0,0,1,22.832-19.611,65.109,65.109,0,0,1,22.883-6.89,60.816,60.816,0,0,1,12.768,0,59.937,59.937,0,0,1,19.227,5.416,70.211,70.211,0,0,1,18.626,13.009c50.11,48.086,115.762,56.784,180.124,23.858a.468.468,0,0,1,.63.2v0a.47.47,0,0,1-.2.631,182.369,182.369,0,0,1-52.06,17.811,141.752,141.752,0,0,1-91.7-14.52,167.065,167.065,0,0,1-37.445-27.309c-20.625-19.793-47.7-24.046-72.424-11.375a61.406,61.406,0,0,0-22.488,19.3,42.863,42.863,0,0,0-5,9.585,46.809,46.809,0,0,1,13.112,1.454,28.435,28.435,0,0,1,10.653,5.184,19.168,19.168,0,0,1,6.377,9.294c1.908,6.117.583,11.979-3.629,16.082a15.3,15.3,0,0,1-15.466,3.542,17.359,17.359,0,0,1-8.513-6.681c-2.579-3.688-4.31-8.534-5.144-14.4a30.227,30.227,0,0,1,1.285-13.5c-11.13.54-22.488,4.513-29.425,10.911a23.22,23.22,0,0,0-3.189,3.586c.844,1.045.268,3.367-.391,6.03a28.381,28.381,0,0,0-.854,4.331c-.283,3.831,1.327,10.968,6.881,15.124a28.516,28.516,0,0,1,11.483-1.773A25.443,25.443,0,0,1,583.693,1076a30.708,30.708,0,0,1,10.887,10.4,31.909,31.909,0,0,1,5.6,14.886c.429,4.523-.232,8.766-.929,13.258-1.123,7.232-2.4,15.43.939,26.5a138.38,138.38,0,0,0,6.654,17.538.47.47,0,0,1-.2.613l-.38.21,28.346,41.619,104.043,47.691a.472.472,0,0,1,.27.378l.336,3.185a.47.47,0,0,1-.608.5l-87.135-27.337-.355-.113,27.863,40.909a66.6,66.6,0,0,1,7.413-4.428,65.066,65.066,0,0,1,22.881-6.891,60.816,60.816,0,0,1,12.768,0,59.925,59.925,0,0,1,19.227,5.416,70.233,70.233,0,0,1,18.626,13.009c50.11,48.086,115.762,56.784,180.124,23.858a.47.47,0,0,1,.631.2h0a.465.465,0,0,1-.2.629l0,0a182.371,182.371,0,0,1-52.06,17.812,149.116,149.116,0,0,1-25.16,2.165A140.329,140.329,0,0,1,840.146,1316.106ZM699.263,1302.68l3.222-.34-23.7-34.793a63.837,63.837,0,0,0-5.916,4.752Zm-49.95-5.493,3.141,2.238,2.639-3.417-3.084-2.358Zm.984-73.138q.75.25,1.5.492l86.451,27.124-.232-2.209-102.383-46.933Zm-44.176-31.175c.059.087,6.074,8.656,13.5,9.078,7.713.438,13.306,1.15,15.01,6.361.848,2.6.063,4.18-.745,5.047a4.871,4.871,0,0,1-2.322,1.359c3.648,2.818,9.891,6.182,17.249,8.813l-14.826-21.766-3.979-1.826a.462.462,0,0,1-.2-.166c-.129-.193-12.882-19.381-17.847-25.363-4.429-5.336-12.81-12.464-12.894-12.536a.468.468,0,0,1,.139-.8l2.683-.963c-2.045-.885-5.861-3.065-5.087-6.788.084-.407.171-.791.253-1.159.85-3.774,1.273-5.668-4.72-11.523-7.394-7.223-8.515-15.01-3.333-23.143a25.763,25.763,0,0,0,3.411-18.9,19.225,19.225,0,0,0-9.121-12.39c-7.719-4.713-13.214-4.232-16.468-3a13.1,13.1,0,0,0-7.789,8.756c-2.587,8.439,3.318,19.282,10.455,24.116,7.021,4.753,15.388,1.533,15.471,1.5a.472.472,0,0,1,.6.232.468.468,0,0,1-.185.61,17.7,17.7,0,0,1-5.391,1.8,22.067,22.067,0,0,1-13.1-1.732c-5.315-2.411-9.848-8.144-11.829-14.958a26.3,26.3,0,0,1,3.1-21.788,44.39,44.39,0,0,1-5.974-12.568,26.936,26.936,0,0,1-.825-12.036,20.622,20.622,0,0,1,2.9-7.478,4.705,4.705,0,0,0-1.307.429c-11.233,5.547-1.86,33.7-1.766,33.986a.505.505,0,0,1,.023.2c-2.581,22.784,3.723,29.255,19.823,39.575,8.261,5.3,14.816,15.594,18.86,23.3a126.33,126.33,0,0,1,6.689,15.1l1.416-.627a.473.473,0,0,1,.376,0,.478.478,0,0,1,.256.275c.061.175,6.142,17.642,6.778,28.783a.47.47,0,0,1-.345.479c-.167.045-16.783,4.536-29.6,1.48a.467.467,0,0,1-.2-.1l-1.978-1.7A118.593,118.593,0,0,1,559.2,1188.9c-7.335-1.458-17.667-4.27-25.226-9.378-3.171-2.145-6.075-4.175-8.637-5.967-9.057-6.333-15.039-10.518-19.1-10.09-4.6.485-14.411,3.187-17.061,3.932a13.063,13.063,0,0,1,1.636,3.111,12.923,12.923,0,0,1-.2,9.376c-1.649,4.139-1.2,9.866,1.152,14.59a19.515,19.515,0,0,0,12.779,10.24c6.729,1.849,13.249.777,17.889-2.943a14.947,14.947,0,0,0,5.727-12.483c-.265-5.374-5.539-11.633-12.539-14.885-7.065-3.284-14.387-2.886-20.3,1.047-.631.477-1.061.76-1.121.8a.469.469,0,0,1-.538-.768c.345-.262.7-.515,1.051-.752,1.542-1.169,4.409-3.6,5.674-6.351a5.82,5.82,0,0,1,3.785-3.487c2.035-.508,4.479.268,7.071,2.242,1.14.87,2.276,1.817,3.373,2.733,3.29,2.742,6.691,5.579,10.86,6.894,5.564,1.754,11.112,7.569,13.718,12.407a22.128,22.128,0,0,1,1.271,2.987c.576,1.575,1.029,2.82,2.063,3.271,1.006.439,2.6.169,5.008-.846,6.341-2.674,15.081-5.143,20.7-1.712a18.137,18.137,0,0,1,5.7,5.283l.264-4.359a.466.466,0,0,1,.4-.435.473.473,0,0,1,.509.312c.015.045,1.691,4.5,12.414,5.763,8.1.954,20.857,3.955,29.145,8.815-4.526-4.775-10.742-11.8-11.4-15a.481.481,0,0,1,.859-.371Zm20.943,14.753a3.463,3.463,0,0,0-.921,3.447,4.135,4.135,0,0,0,2.864,2.792c.049.013.1.024.15.034a7.317,7.317,0,0,1-1.8-2.459,4.421,4.421,0,0,1,.526-4.449A3.162,3.162,0,0,0,627.064,1207.627ZM583.786,1085.41a20.38,20.38,0,0,1,9.547,12.979,26.724,26.724,0,0,1-3.533,19.616c-4.91,7.708-3.834,15.1,3.2,21.967,6.37,6.223,5.847,8.549,4.981,12.4-.082.365-.167.743-.249,1.144-.854,4.1,5.594,6.142,5.659,6.163a.468.468,0,0,1,.021.889l-3.12,1.119a127.053,127.053,0,0,1,12.4,12.124c4.8,5.781,16.773,23.74,17.832,25.332l2.445,1.122L605.208,1159.5a.469.469,0,0,1-.068-.373.474.474,0,0,1,.228-.3l.448-.249a139.972,139.972,0,0,1-6.52-17.27c-3.4-11.271-2.105-19.58-.967-26.912,1.39-8.941,2.588-16.661-4.526-27.483-5.379-8.183-12.453-12.559-21.021-13.009a27.65,27.65,0,0,0-11.35,1.8.472.472,0,0,1-.463-.05c-5.4-3.9-7.848-11.054-7.478-16.106a29.175,29.175,0,0,1,.879-4.489c.45-1.813.993-4.008.713-4.935-3.358,5.237-4.031,11.531-1.994,18.784a43.019,43.019,0,0,0,6.02,12.551.465.465,0,0,1,.016.536,25.4,25.4,0,0,0-3.164,21.285c1.908,6.558,6.244,12.063,11.316,14.364a21.263,21.263,0,0,0,9.927,1.948,16.449,16.449,0,0,1-8.227-2.729,27.949,27.949,0,0,1-9.226-11.113c-2.3-4.929-2.868-9.921-1.6-14.056a14,14,0,0,1,8.355-9.359,14.178,14.178,0,0,1,5.07-.9c3.209,0,7.29.967,12.209,3.971Zm5.493-50.69a29.356,29.356,0,0,0-1.353,13.4c2.062,14.522,9.048,18.967,13.029,20.325a13.926,13.926,0,0,0,5.972.658,14.419,14.419,0,0,0,8.536-3.983c3.953-3.848,5.188-9.363,3.39-15.132-2.658-8.53-10.374-12.24-16.378-13.849a45.171,45.171,0,0,0-11.629-1.443c-.523,0-1.044.009-1.566.024Z" transform="translate(-299.337 -996.589)" fill="#686969"/>
  <path id="Path_214710" data-name="Path 214710" d="M863.186,1318.261a141.17,141.17,0,0,1-23.081-1.907h0a143.275,143.275,0,0,1-43.486-14.81,167.236,167.236,0,0,1-37.5-27.349c-20.544-19.715-47.512-23.952-72.138-11.332a65.784,65.784,0,0,0-7.078,4.21l24.006,35.247a.721.721,0,0,1-.519,1.122l-4.246.445a.725.725,0,0,1-.616-.244l-26.363-30.348a54.765,54.765,0,0,0-7.576,8.8c-.216.316-.426.6-.623.862a6.256,6.256,0,0,1,2.005,2.295c.634,2.043.071,2.729-.109,2.886L658.2,1298.7l-1.77-1.353-2.969,3.855a1.138,1.138,0,0,1-.468.343,1.111,1.111,0,0,1-.931-.1l-4.515-3.223a1.067,1.067,0,0,1-.281-1.428l3.114-4.075-2.062-1.575,7.706-10.29a4.963,4.963,0,0,1,2.715-1.053c.222.011.385.018.5.03h.052v.005c.244.031.268.088.26.256a.49.49,0,0,1-.01.093c1.127.606,2.23,1.269,3.291,1.977q.244-.4.571-.882a56.349,56.349,0,0,1,7.818-9.067l-48.06-55.322c-.276-.191-8.239-5.679-49.243-14.72-21.426-4.729-34.141.574-45.358,5.251-10.967,4.571-20.438,8.519-34.63,1.2l-.08-.048c-8.106-5.627-12.8-12.265-13.94-19.734a27.051,27.051,0,0,1,2.006-14.4,29.624,29.624,0,0,1,3.12-5.689c-5.7-33.082-20.752-53.045-44.753-59.33-19.874-5.205-45.791-.3-72.972,13.817a217.472,217.472,0,0,0-66.7,54.312.719.719,0,0,1-1.117-.9,218.913,218.913,0,0,1,67.153-54.683,147.629,147.629,0,0,1,38.3-14.072c13.156-2.669,25.166-2.623,35.7.138a54.033,54.033,0,0,1,29,18.935c8.22,10.318,13.892,24.4,16.858,41.848a.725.725,0,0,1-.139.559c-.068.087-6.654,8.719-5.033,19.259,1.09,7.056,5.569,13.361,13.312,18.742,13.557,6.978,22.732,3.152,33.357-1.276,5.485-2.285,11.694-4.873,19.116-6.225a67.384,67.384,0,0,1,27.117.9c42.517,9.376,49.61,14.827,49.891,15.054a.822.822,0,0,1,.089.087l48.067,55.33a65.391,65.391,0,0,1,5.634-4.524l-28.375-41.662a80.546,80.546,0,0,1-14.3-6.437,39.205,39.205,0,0,1-5.04-3.439,6.075,6.075,0,0,1-1.48-.15,5.323,5.323,0,0,1-3.722-3.61,4.61,4.61,0,0,1,1.2-4.6,5.646,5.646,0,0,1,3.51-1.57.719.719,0,0,1,.375,1.357,3.491,3.491,0,0,0-1.618,4.42,7.92,7.92,0,0,0,2.214,2.673,3.991,3.991,0,0,0,2.336-1.144,3.7,3.7,0,0,0,.488-3.84c-1.479-4.521-6.717-5.158-13.956-5.568-3.755-.213-7.1-2.246-9.65-4.423a161.936,161.936,0,0,0,11.33,12.5c.369.336.726.691,1.051,1.049a.721.721,0,0,1-1.035,1l-.112-.112c-.166-.164-.485-.478-.918-.915-2.909-2.639-7.743-5.172-13.973-7.312a95.087,95.087,0,0,0-18.85-4.32c-7.231-.852-10.619-3.142-12.125-4.693l-.233,3.884a.722.722,0,0,1-.6.667.714.714,0,0,1-.784-.434,15.268,15.268,0,0,0-6.028-6.153c-4.05-2.473-11.016-1.836-19.616,1.792-2.769,1.168-4.6,1.427-5.947.841-1.5-.657-2.058-2.184-2.705-3.952a21.079,21.079,0,0,0-1.2-2.835c-2.492-4.625-7.767-10.178-13.025-11.834-4.4-1.386-7.887-4.3-11.264-7.116l-.086-.071c-1.06-.884-2.157-1.8-3.247-2.628-2.29-1.75-4.388-2.448-6.065-2.036a4.634,4.634,0,0,0-2.984,2.812,15.13,15.13,0,0,1-2.186,3.3,20.452,20.452,0,0,1,4.6-1.031,23.237,23.237,0,0,1,12.235,2.212c7.373,3.426,12.936,10.113,13.222,15.9a16.143,16.143,0,0,1-6.173,13.472c-4.937,3.959-11.843,5.11-18.945,3.161a20.652,20.652,0,0,1-13.527-10.856c-2.495-5.013-2.964-11.12-1.2-15.561a11.582,11.582,0,0,0,.2-8.49,11.073,11.073,0,0,0-1.876-3.343.722.722,0,0,1,.343-1.164c.126-.036,12.448-3.585,17.94-4.163,4.508-.461,10.3,3.579,19.9,10.293,2.409,1.687,5.4,3.778,8.629,5.96,14.143,9.562,38.622,11.125,38.868,11.14a.727.727,0,0,1,.426.171l1.965,1.694c11.1,2.581,25.066-.566,28.269-1.361-.7-9.68-5.286-23.752-6.424-27.129l-1.16.513a.717.717,0,0,1-.581,0,.7.7,0,0,1-.391-.426,122.776,122.776,0,0,0-6.784-15.412c-3.978-7.581-10.409-17.7-18.449-22.853-8.586-5.5-13.867-9.571-17.181-15.3-3.491-6.042-4.479-13.83-3.2-25.25a87.413,87.413,0,0,1-3.382-15.092,36.96,36.96,0,0,1,.148-11.837c.864-4.119,2.767-6.927,5.659-8.356a4.091,4.091,0,0,1,2.308-.524,24.308,24.308,0,0,1,3.3-3.712,38.24,38.24,0,0,1,11.227-6.977,57.166,57.166,0,0,1,19.142-4.244,43.781,43.781,0,0,1,5.206-10.05,62.845,62.845,0,0,1,22.925-19.692,65.115,65.115,0,0,1,22.969-6.915,61.18,61.18,0,0,1,12.821,0,60.028,60.028,0,0,1,19.307,5.439,70.328,70.328,0,0,1,18.694,13.056c50.028,48.007,115.576,56.688,179.836,23.814a.721.721,0,0,1,.66,1.281,182.517,182.517,0,0,1-52.131,17.836,142.008,142.008,0,0,1-91.86-14.546,167.3,167.3,0,0,1-37.5-27.35c-20.544-19.716-47.511-23.952-72.136-11.332a61.356,61.356,0,0,0-22.4,19.222,42.59,42.59,0,0,0-4.839,9.18,46.827,46.827,0,0,1,12.81,1.472,28.467,28.467,0,0,1,10.744,5.229,19.339,19.339,0,0,1,6.462,9.417c1.936,6.209.591,12.163-3.694,16.335a15.494,15.494,0,0,1-15.718,3.6,17.5,17.5,0,0,1-8.643-6.779c-2.6-3.715-4.344-8.6-5.183-14.5a30.645,30.645,0,0,1,1.182-13.267c-11.274.623-22.323,4.755-28.905,10.825a22.972,22.972,0,0,0-3.05,3.4c.755,1.191.192,3.465-.455,6.08a28.257,28.257,0,0,0-.85,4.309c-.274,3.709,1.281,10.7,6.674,14.813a28.638,28.638,0,0,1,11.454-1.74,25.853,25.853,0,0,1,11.013,3.058,31.063,31.063,0,0,1,10.98,10.488,32.224,32.224,0,0,1,5.637,14.991c.431,4.553-.229,8.8-.928,13.306-1.124,7.237-2.391,15.4.929,26.407a138.619,138.619,0,0,0,6.641,17.506.718.718,0,0,1-.308.936l-.138.077,28.153,41.335,103.979,47.661a.725.725,0,0,1,.415.579l.336,3.186a.722.722,0,0,1-.258.632.73.73,0,0,1-.672.132l-86.8-27.233,27.314,40.1a67.181,67.181,0,0,1,7.233-4.3,65.1,65.1,0,0,1,22.969-6.917,61.18,61.18,0,0,1,12.821,0,60.053,60.053,0,0,1,19.307,5.439,70.344,70.344,0,0,1,18.694,13.056c50.028,48.007,115.576,56.689,179.835,23.815a.722.722,0,0,1,1.016.857.707.707,0,0,1-.318.4l-.038.022a182.482,182.482,0,0,1-52.13,17.836,149.8,149.8,0,0,1-25.205,2.169Zm-23-2.4a138.583,138.583,0,0,0,23.087,1.9,149.372,149.372,0,0,0,25.118-2.161,181.992,181.992,0,0,0,51.953-17.77l.077-.047a.2.2,0,0,0,.065-.1.208.208,0,0,0-.014-.164.227.227,0,0,0-.129-.113.212.212,0,0,0-.166.014c-64.462,32.977-130.219,24.265-180.412-23.9a69.868,69.868,0,0,0-18.56-12.964,59.528,59.528,0,0,0-19.146-5.394,60.593,60.593,0,0,0-12.715,0,64.607,64.607,0,0,0-22.793,6.863,66.931,66.931,0,0,0-7.386,4.412l-.207.143-28.414-41.719,1.048.337,87.133,27.337a.234.234,0,0,0,.207-.041.225.225,0,0,0,.078-.193l-.336-3.185a.225.225,0,0,0-.128-.178l-104.1-47.718-.039-.058-28.5-41.846.619-.343a.22.22,0,0,0,.1-.287,139.166,139.166,0,0,1-6.667-17.573c-3.353-11.115-2.076-19.339-.949-26.594.7-4.5,1.354-8.725.93-13.212a31.752,31.752,0,0,0-5.556-14.766,30.575,30.575,0,0,0-10.806-10.326,25.35,25.35,0,0,0-10.8-3,27.939,27.939,0,0,0-11.383,1.757l-.128.047-.11-.082c-5.641-4.221-7.265-11.488-6.98-15.342a28.492,28.492,0,0,1,.863-4.38c.618-2.5,1.2-4.859.437-5.806l-.12-.148.111-.155a23.528,23.528,0,0,1,3.224-3.625c6.734-6.211,18.07-10.417,29.581-10.975l.365-.018-.115.347a30.134,30.134,0,0,0-1.275,13.388c.828,5.826,2.545,10.634,5.1,14.289a16.994,16.994,0,0,0,8.394,6.588,14.993,14.993,0,0,0,15.206-3.486c4.144-4.036,5.443-9.806,3.564-15.828a18.835,18.835,0,0,0-6.293-9.172,27.984,27.984,0,0,0-10.558-5.138,46.858,46.858,0,0,0-13.044-1.446l-.371.012.129-.349a43.062,43.062,0,0,1,5.029-9.64,61.871,61.871,0,0,1,22.581-19.381c24.822-12.719,52-8.452,72.709,11.418a166.78,166.78,0,0,0,37.39,27.268,141.492,141.492,0,0,0,91.537,14.495,181.957,181.957,0,0,0,51.987-17.787.221.221,0,0,0-.034-.405.213.213,0,0,0-.166.014c-64.462,32.978-130.219,24.263-180.411-23.9a69.9,69.9,0,0,0-18.561-12.964,59.53,59.53,0,0,0-19.146-5.392,60.445,60.445,0,0,0-12.715,0,64.626,64.626,0,0,0-22.8,6.862,62.354,62.354,0,0,0-22.743,19.534,43.3,43.3,0,0,0-5.2,10.089l-.057.158-.168.008a56.642,56.642,0,0,0-19.142,4.215,37.775,37.775,0,0,0-11.081,6.885,23.8,23.8,0,0,0-3.309,3.747l-.084.119-.146-.015a3.528,3.528,0,0,0-2.167.454c-2.761,1.366-4.574,4.058-5.4,8.01a36.51,36.51,0,0,0-.143,11.673,87.052,87.052,0,0,0,3.379,15.061l.016.05-.006.054c-1.272,11.335-.306,19.044,3.132,25,3.264,5.643,8.5,9.672,17.019,15.131,8.132,5.213,14.615,15.408,18.621,23.043a123.324,123.324,0,0,1,6.814,15.48.221.221,0,0,0,.3.133l1.661-.736.088.26c.975,2.872,5.876,17.706,6.552,27.723l.014.208-.2.051c-2.789.706-17.287,4.095-28.769,1.4l-.106-.054-2.01-1.733a.222.222,0,0,0-.131-.051c-.247-.016-24.863-1.588-39.119-11.226-3.232-2.184-6.224-4.277-8.628-5.959-9.513-6.652-15.252-10.664-19.571-10.21-5.448.572-17.728,4.11-17.851,4.146a.221.221,0,0,0-.1.358,11.586,11.586,0,0,1,1.966,3.5,12.076,12.076,0,0,1-.21,8.849c-1.717,4.309-1.255,10.258,1.179,15.148a20.157,20.157,0,0,0,13.207,10.6c6.952,1.907,13.7.789,18.508-3.07a15.645,15.645,0,0,0,5.984-13.055c-.278-5.612-5.719-12.12-12.938-15.474a22.718,22.718,0,0,0-11.971-2.166,19.846,19.846,0,0,0-5.477,1.382l-.271-.409a14.636,14.636,0,0,0,2.822-3.933,5.122,5.122,0,0,1,3.311-3.1c1.84-.461,4.085.276,6.5,2.119,1.1.839,2.2,1.756,3.263,2.641l.086.072c3.34,2.786,6.793,5.668,11.094,7.023,5.385,1.7,10.776,7.359,13.317,12.078a21.48,21.48,0,0,1,1.233,2.9c.605,1.656,1.13,3.089,2.434,3.66,1.206.526,2.918.267,5.551-.843,8.753-3.691,15.882-4.316,20.072-1.759a15.8,15.8,0,0,1,6.226,6.384.22.22,0,0,0,.426-.067l.308-5.112.4.488c1.21,1.46,4.4,4.047,12.206,4.968a95.575,95.575,0,0,1,18.952,4.343c6.294,2.163,11.189,4.731,14.156,7.424.441.444.758.757.924.92l.113.111a.216.216,0,0,0,.3,0,.218.218,0,0,0,.011-.306c-.314-.345-.66-.69-1.027-1.025-2.807-2.823-9.68-9.9-13.044-14.809l.385-.316c2.586,2.677,6.654,5.923,11.353,6.189,7.439.421,12.826,1.09,14.394,5.887a4.186,4.186,0,0,1-.582,4.354,4.5,4.5,0,0,1-2.756,1.32l-.1.01-.078-.06a8.454,8.454,0,0,1-2.445-2.923,4,4,0,0,1,1.843-5.074.218.218,0,0,0,.11-.253.232.232,0,0,0-.222-.161,5.149,5.149,0,0,0-3.2,1.431,4.109,4.109,0,0,0-1.069,4.1,4.828,4.828,0,0,0,3.366,3.269,5.252,5.252,0,0,0,1.428.13l.1,0,.074.06a38.721,38.721,0,0,0,5.048,3.454,80.075,80.075,0,0,0,14.285,6.423l.08.027.047.069,28.7,42.136-.2.143a64.594,64.594,0,0,0-5.976,4.8l-.19.171-48.4-55.714c-.3-.252-7.308-5.631-49.716-14.983a66.912,66.912,0,0,0-26.918-.892c-7.366,1.342-13.549,3.918-19,6.192-10.746,4.479-20.024,8.346-33.813,1.245-7.888-5.48-12.437-11.9-13.549-19.094-1.66-10.795,5.063-19.554,5.131-19.641a.222.222,0,0,0,.042-.17c-2.952-17.365-8.59-31.368-16.758-41.621a53.513,53.513,0,0,0-28.733-18.76c-10.463-2.743-22.4-2.787-35.474-.134a147.141,147.141,0,0,0-38.165,14.024,218.413,218.413,0,0,0-67,54.558.219.219,0,0,0,.342.273A217.983,217.983,0,0,1,367.08,1122.8c27.292-14.175,53.333-19.1,73.331-13.859,24.232,6.346,39.418,26.476,45.136,59.832l.017.1-.059.085a29.2,29.2,0,0,0-3.128,5.681,26.554,26.554,0,0,0-1.971,14.129c1.122,7.323,5.741,13.849,13.729,19.394,14.011,7.23,23.383,3.324,34.233-1.2,11.288-4.706,24.083-10.039,45.659-5.278,41.1,9.063,49.148,14.609,49.47,14.84l48.419,55.727-.177.165a55.836,55.836,0,0,0-7.923,9.149c-.274.4-.5.764-.691,1.08l-.135.227-.219-.148a39.987,39.987,0,0,0-4.077-2.42,4.458,4.458,0,0,0-2.338.923l-7.344,9.819,2.066,1.579-3.405,4.453a.564.564,0,0,0,.162.738l4.5,3.212a.583.583,0,0,0,.484.046.616.616,0,0,0,.246-.183l3.27-4.244,1.759,1.343,7.444-10.234h0s.542-.471-.028-2.32a5.754,5.754,0,0,0-2.042-2.211l-.237-.151.176-.217c.238-.3.5-.649.771-1.049a55.28,55.28,0,0,1,7.835-9.054l.19-.176,26.7,30.739a.242.242,0,0,0,.184.075l4.249-.446a.212.212,0,0,0,.174-.125.219.219,0,0,0-.016-.216l-24.288-35.66.205-.141a66.424,66.424,0,0,1,7.339-4.384c24.826-12.72,52.007-8.453,72.713,11.417a166.786,166.786,0,0,0,37.388,27.268,142.807,142.807,0,0,0,43.334,14.758Zm-141.026-12.917-.086-.1-26.555-30.566.181-.165a64.31,64.31,0,0,1,5.939-4.77l.208-.148,24.079,35.35Zm-25.943-30.622,26.149,30.1,2.676-.282L678.722,1267.9A63.891,63.891,0,0,0,673.218,1272.32Zm-20.713,27.448-3.547-2.527,3-3.941,3.483,2.662Zm-2.836-2.634,2.735,1.948,2.337-3.028L652.056,1294Zm88.868-45.117-.363-.115-86.451-27.123q-.755-.243-1.505-.493l-.08-.027-.047-.07-15.171-22.267,103.33,47.366Zm-88.08-28.178q.708.235,1.417.464l86.086,27.009-.177-1.688-101.438-46.5Zm-1,.187-.724-.258c-6.832-2.443-13.306-5.752-17.317-8.851l-.406-.314.5-.126a4.63,4.63,0,0,0,2.2-1.289c.759-.817,1.5-2.314.688-4.8-1.654-5.06-7.172-5.757-14.787-6.19-7.455-.423-13.5-8.915-13.688-9.18a.2.2,0,0,0-.188-.09.272.272,0,0,0-.1.018.22.22,0,0,0-.126.245c.5,2.4,4.525,7.687,11.342,14.879l-.308.388c-7.9-4.635-20.284-7.751-29.048-8.783-10.936-1.287-12.606-5.885-12.622-5.931a.21.21,0,0,0-.238-.144.215.215,0,0,0-.184.2l-.308,5.078-.411-.592a17.991,17.991,0,0,0-5.622-5.21c-5.535-3.377-14.189-.925-20.476,1.727-2.477,1.046-4.132,1.313-5.206.845-1.129-.493-1.6-1.778-2.194-3.4a22.276,22.276,0,0,0-1.262-2.968c-2.58-4.789-8.072-10.55-13.571-12.283-4.208-1.326-7.623-4.172-10.925-6.923-1.058-.884-2.235-1.866-3.385-2.743-2.529-1.927-4.9-2.684-6.858-2.2a5.593,5.593,0,0,0-3.612,3.335c-1.288,2.8-4.159,5.25-5.757,6.461q-.537.363-1.05.752a.218.218,0,0,0,.25.358c.13-.086.535-.357,1.106-.789,5.981-3.979,13.469-4.369,20.556-1.074s12.414,9.639,12.682,15.1a15.218,15.218,0,0,1-5.822,12.693c-4.7,3.767-11.3,4.856-18.109,2.987a19.727,19.727,0,0,1-12.936-10.37c-2.381-4.78-2.837-10.587-1.162-14.794a12.727,12.727,0,0,0-1.407-12.249l-.206-.29.342-.1c2.853-.8,12.518-3.456,17.1-3.94,4.165-.422,10.161,3.765,19.255,10.123,2.428,1.7,5.431,3.8,8.649,5.976,7.526,5.085,17.823,7.886,25.135,9.339a118.972,118.972,0,0,0,14.05,1.949l.081.005,2.04,1.754a.209.209,0,0,0,.092.046c12.581,3,28.8-1.293,29.479-1.477a.221.221,0,0,0,.161-.224c-.629-11.039-6.7-28.539-6.764-28.715a.225.225,0,0,0-.119-.127.228.228,0,0,0-.176,0l-1.659.736-.093-.251a126.522,126.522,0,0,0-6.675-15.071c-4.028-7.676-10.556-17.933-18.773-23.206-16.2-10.381-22.534-16.888-19.937-39.813a.22.22,0,0,0-.012-.093c-.389-1.182-9.33-28.747,1.892-34.289a4.917,4.917,0,0,1,1.376-.451l.556-.1-.3.476a20.278,20.278,0,0,0-2.864,7.387,26.821,26.821,0,0,0,.818,11.921,44.086,44.086,0,0,0,5.94,12.5l.094.138-.09.14a26.019,26.019,0,0,0-3.07,21.581c1.962,6.749,6.443,12.42,11.692,14.8a21.744,21.744,0,0,0,12.954,1.714,17.43,17.43,0,0,0,5.318-1.78.219.219,0,0,0,.077-.279.221.221,0,0,0-.28-.109c-.084.033-8.536,3.325-15.7-1.526-7.212-4.885-13.174-15.852-10.554-24.4a13.4,13.4,0,0,1,7.935-8.916c3.311-1.253,8.889-1.745,16.691,3.019a19.527,19.527,0,0,1,9.234,12.548,25.9,25.9,0,0,1-3.443,19.088c-5.111,8.021-4,15.7,3.3,22.832,6.095,5.954,5.659,7.892,4.79,11.756l-.048.21c-.067.3-.137.616-.2.944-.727,3.49,2.784,5.576,4.941,6.509l.58.251-3.278,1.177a.214.214,0,0,0-.138.165.225.225,0,0,0,.076.207c.084.071,8.494,7.228,12.924,12.567,4.7,5.664,16.5,23.33,17.825,25.325l.038.058a.206.206,0,0,0,.089.074l4.05,1.858.039.058Zm-17.349-9.212a67.214,67.214,0,0,0,16.067,8.219l-14.351-21.069-3.916-1.8a.7.7,0,0,1-.3-.254l-.039-.059c-1.328-1.993-13.107-19.638-17.793-25.283-4.226-5.092-12.109-11.861-12.814-12.463.79,2.318,6.1,18.237,6.694,28.569a.723.723,0,0,1-.527.734c-.692.186-17.026,4.512-29.725,1.483a.722.722,0,0,1-.3-.154l-1.918-1.647a119.407,119.407,0,0,1-14.027-1.95c-7.357-1.463-17.722-4.284-25.317-9.416-3.221-2.179-6.226-4.281-8.64-5.969-9.018-6.306-14.968-10.459-18.931-10.046-4.38.462-13.48,2.934-16.682,3.829a13.224,13.224,0,0,1,1.262,12.437c-1.625,4.077-1.175,9.723,1.145,14.382a19.235,19.235,0,0,0,12.616,10.109c6.654,1.828,13.1.773,17.672-2.9a14.715,14.715,0,0,0,5.633-12.275c-.26-5.284-5.472-11.454-12.394-14.67s-14.235-2.845-20.055,1.028c-.572.433-.986.71-1.1.784a.719.719,0,0,1-.851-1.159c.347-.265.707-.521,1.062-.76,1.549-1.174,4.35-3.56,5.586-6.249a6.1,6.1,0,0,1,3.942-3.623c2.12-.528,4.638.262,7.293,2.284,1.158.883,2.339,1.87,3.381,2.74,3.285,2.737,6.662,5.551,10.775,6.848,5.627,1.773,11.233,7.644,13.863,12.527a22.494,22.494,0,0,1,1.288,3.023c.555,1.52.993,2.716,1.926,3.123s2.468.14,4.811-.847c6.4-2.7,15.217-5.178,20.928-1.7a18.521,18.521,0,0,1,5.363,4.786l.222-3.663a.717.717,0,0,1,1.394-.189c.015.041,1.734,4.363,12.207,5.6,8.31.978,19.859,3.823,27.828,8.058-4.618-4.953-9.75-10.988-10.361-13.944a.72.72,0,0,1,.42-.807.92.92,0,0,1,.31-.059.714.714,0,0,1,.575.3l.005.005c.059.085,6.065,8.558,13.308,8.968,7.814.445,13.481,1.174,15.233,6.534.886,2.715.054,4.378-.8,5.3A5.113,5.113,0,0,1,632.1,1214.814Zm-78.381-164.76a4.305,4.305,0,0,0-.665.269c-10.839,5.353-2.025,32.52-1.644,33.674a.769.769,0,0,1,.037.312c-2.566,22.647,3.7,29.079,19.709,39.34,8.311,5.332,14.89,15.665,18.946,23.395a127.123,127.123,0,0,1,6.611,14.88l1.172-.519a.726.726,0,0,1,.578,0,.109.109,0,1,0,.193-.013.722.722,0,0,1,.461-.55l2.105-.755c-2.29-1.1-5.4-3.276-4.668-6.812.067-.331.138-.647.207-.953l.047-.21c.828-3.681,1.244-5.53-4.651-11.289-7.491-7.317-8.624-15.21-3.369-23.457a25.4,25.4,0,0,0,3.377-18.714,19.023,19.023,0,0,0-9-12.224c-7.634-4.661-13.052-4.194-16.254-2.984a12.9,12.9,0,0,0-7.636,8.589c-2.557,8.339,3.29,19.059,10.354,23.843,6.911,4.679,15.155,1.507,15.238,1.475a.72.72,0,0,1,.629,1.291,17.981,17.981,0,0,1-5.477,1.836,22.245,22.245,0,0,1-13.247-1.754c-5.376-2.438-9.961-8.23-11.963-15.115a26.52,26.52,0,0,1,3.04-21.852,44.6,44.6,0,0,1-5.913-12.5,27.334,27.334,0,0,1-.833-12.146A20.779,20.779,0,0,1,553.723,1050.054Zm76.306,164.29-.925-.2c-.064-.014-.113-.025-.16-.037a4.364,4.364,0,0,1-3.04-2.962,3.706,3.706,0,0,1,.982-3.694,3.356,3.356,0,0,1,.879-.68l.318.372a4.172,4.172,0,0,0-.5,4.2,7.019,7.019,0,0,0,1.738,2.373Zm-3-6.318a3.209,3.209,0,0,0-.647,2.979,3.863,3.863,0,0,0,1.818,2.265,7.607,7.607,0,0,1-1.073-1.726A4.681,4.681,0,0,1,627.031,1208.026Zm6.651-7.159-3.327-1.527-.039-.059c-.526-.792-12.958-19.46-17.816-25.309a127.014,127.014,0,0,0-12.37-12.094l-.328-.28,3.526-1.265a.223.223,0,0,0,.147-.213.218.218,0,0,0-.156-.2c-.282-.092-6.712-2.225-5.831-6.453.081-.4.166-.775.247-1.138.85-3.777,1.361-6.051-4.909-12.177-7.131-6.962-8.22-14.458-3.237-22.281a26.348,26.348,0,0,0,3.5-19.43,20.211,20.211,0,0,0-9.37-12.78h0l-.06-.037c-4.276-2.61-8.338-3.935-12.073-3.935a.677.677,0,0,0-.1,0,13.417,13.417,0,0,0-13.089,10.075c-1.252,4.084-.688,9.011,1.586,13.885a27.714,27.714,0,0,0,9.144,11.014,16.185,16.185,0,0,0,8.095,2.684v.5a21.679,21.679,0,0,1-10.044-1.972c-5.134-2.329-9.522-7.894-11.451-14.52a25.586,25.586,0,0,1,3.2-21.493.217.217,0,0,0-.008-.249,43.183,43.183,0,0,1-6.059-12.63c-2.053-7.307-1.371-13.7,2.023-18.989l.293-.457.157.52c.3.995-.237,3.158-.71,5.067a29.115,29.115,0,0,0-.873,4.457,19.134,19.134,0,0,0,7.376,15.876.229.229,0,0,0,.218.023,27.746,27.746,0,0,1,11.462-1.821c8.653.454,15.791,4.868,21.217,13.121,7.167,10.9,5.961,18.668,4.564,27.659-1.137,7.322-2.422,15.6.959,26.8a139.972,139.972,0,0,0,6.508,17.24l.1.209-.65.362a.216.216,0,0,0-.075.313Zm-2.989-1.922,1.564.717L605,1159.645a.72.72,0,0,1,.246-1.033l.247-.136a140.577,140.577,0,0,1-6.437-17.092c-3.413-11.315-2.12-19.649-.978-27,1.384-8.909,2.577-16.585-4.484-27.327-5.333-8.114-12.34-12.452-20.825-12.9a27.268,27.268,0,0,0-11.248,1.783.724.724,0,0,1-.7-.08c-5.473-3.953-7.957-11.206-7.582-16.328a29.521,29.521,0,0,1,.888-4.538,23.5,23.5,0,0,0,.779-4.106c-2.978,5.045-3.509,11.081-1.579,17.956a42.66,42.66,0,0,0,5.984,12.474.716.716,0,0,1,.02.818,25.086,25.086,0,0,0-3.133,21.075c1.889,6.493,6.173,11.936,11.18,14.208a21.1,21.1,0,0,0,5.882,1.737,16.658,16.658,0,0,1-4.425-2.083,28.22,28.22,0,0,1-9.314-11.216c-2.325-4.984-2.9-10.04-1.612-14.234a13.915,13.915,0,0,1,13.567-10.436c.035,0,.069,0,.1,0,3.82,0,7.961,1.344,12.308,3.994l.022.012a20.718,20.718,0,0,1,9.664,13.139,26.854,26.854,0,0,1-3.565,19.8c-4.84,7.6-3.775,14.883,3.163,21.656,6.471,6.32,5.936,8.7,5.05,12.633-.083.371-.167.744-.247,1.139-.791,3.8,5.23,5.791,5.487,5.874a.718.718,0,0,1,.032,1.364l-2.715.973a127.743,127.743,0,0,1,12.1,11.869C617.633,1179.37,629.2,1196.693,630.693,1198.945Zm-25.247-129.512a14.277,14.277,0,0,1-4.571-.751c-4.036-1.377-11.116-5.875-13.2-20.527a29.779,29.779,0,0,1,1.364-13.515l.028-.08.131-.088.072,0q.938-.027,1.877-.025a45.513,45.513,0,0,1,11.388,1.451c6.067,1.626,13.861,5.378,16.554,14.018,1.827,5.862.568,11.47-3.455,15.385a14.736,14.736,0,0,1-8.684,4.054A14.288,14.288,0,0,1,605.446,1069.433Zm-15.987-34.468a29.273,29.273,0,0,0-1.285,13.123c2.042,14.385,8.935,18.781,12.862,20.121a13.8,13.8,0,0,0,5.864.646,14.233,14.233,0,0,0,8.389-3.915c3.882-3.778,5.094-9.2,3.325-14.877-2.624-8.422-10.26-12.089-16.2-13.683a45.314,45.314,0,0,0-11.563-1.434Q590.152,1034.948,589.459,1034.965Z" transform="translate(-299.337 -996.589)" fill="#686969"/>
</svg>
